<svg width="385" height="51" viewBox="0 0 385 51" fill="none" xmlns="http://www.w3.org/2000/svg">
<path d="M47.9428 51H39.2502V39.3277H8.69256V51H0V27.2243C0 23.7536 0.601792 20.5592 1.80538 17.6411C3.00896 14.723 4.68061 12.2139 6.82031 10.1138C8.96002 8.01365 11.4898 6.37776 14.4096 5.20611C17.3294 4.03446 20.5167 3.44863 23.9714 3.44863H43.5631C44.1649 3.44863 44.7332 3.55917 45.2682 3.78023C45.8031 4.0013 46.2711 4.31079 46.6723 4.70871C47.0735 5.10663 47.3856 5.57087 47.6085 6.10143C47.8313 6.63199 47.9428 7.19571 47.9428 7.79259V51ZM8.69256 30.7061H39.2502V12.0702H23.9714C23.7039 12.0702 23.1356 12.1144 22.2663 12.2029C21.4193 12.2692 20.4275 12.4571 19.2908 12.7666C18.1764 13.0761 16.9951 13.5514 15.7469 14.1925C14.4987 14.8336 13.3509 15.7178 12.3033 16.8453C11.2557 17.9727 10.3865 19.3875 9.69554 21.0897C9.02688 22.7698 8.69256 24.8147 8.69256 27.2243V30.7061Z" fill="#F5EAEA"/>
<path d="M60.9348 46.656C60.9348 47.2529 60.8122 47.8166 60.5671 48.3472C60.3442 48.8557 60.0321 49.3088 59.6309 49.7068C59.252 50.0826 58.7951 50.381 58.2602 50.6021C57.7475 50.8231 57.2015 50.9337 56.622 50.9337C56.0202 50.9337 55.4518 50.8231 54.9169 50.6021C54.4043 50.381 53.9473 50.0826 53.5461 49.7068C53.1672 49.3088 52.8663 48.8557 52.6435 48.3472C52.4206 47.8166 52.3091 47.2529 52.3091 46.656C52.3091 46.0813 52.4206 45.5397 52.6435 45.0312C52.8663 44.5007 53.1672 44.0475 53.5461 43.6717C53.9473 43.2737 54.4043 42.9642 54.9169 42.7432C55.4518 42.5 56.0202 42.3784 56.622 42.3784C57.2015 42.3784 57.7475 42.5 58.2602 42.7432C58.7951 42.9642 59.252 43.2737 59.6309 43.6717C60.0321 44.0475 60.3442 44.5007 60.5671 45.0312C60.8122 45.5397 60.9348 46.0813 60.9348 46.656Z" fill="#F5EAEA"/>
<path d="M74.0271 51H65.3346V3.44863H74.0271V51Z" fill="#F5EAEA"/>
<path d="M87.0526 46.656C87.0526 47.2529 86.93 47.8166 86.6848 48.3472C86.462 48.8557 86.1499 49.3088 85.7487 49.7068C85.3698 50.0826 84.9129 50.381 84.378 50.6021C83.8653 50.8231 83.3193 50.9337 82.7398 50.9337C82.138 50.9337 81.5696 50.8231 81.0347 50.6021C80.522 50.381 80.0651 50.0826 79.6639 49.7068C79.285 49.3088 78.9841 48.8557 78.7612 48.3472C78.5384 47.8166 78.4269 47.2529 78.4269 46.656C78.4269 46.0813 78.5384 45.5397 78.7612 45.0312C78.9841 44.5007 79.285 44.0475 79.6639 43.6717C80.0651 43.2737 80.522 42.9642 81.0347 42.7432C81.5696 42.5 82.138 42.3784 82.7398 42.3784C83.3193 42.3784 83.8653 42.5 84.378 42.7432C84.9129 42.9642 85.3698 43.2737 85.7487 43.6717C86.1499 44.0475 86.462 44.5007 86.6848 45.0312C86.93 45.5397 87.0526 46.0813 87.0526 46.656Z" fill="#F5EAEA"/>
<path d="M119.302 31.104H87.9419V23.3446H119.302V31.104Z" fill="#F5EAEA"/>
<path d="M139.716 51H135.838C134.59 51 133.252 50.79 131.826 50.37C130.422 49.9499 129.107 49.2646 127.881 48.314C126.655 47.3414 125.641 46.0923 124.838 44.567C124.036 43.0195 123.635 41.1294 123.635 38.8966V0H132.327V38.8966C132.327 39.9577 132.662 40.8088 133.33 41.4499C133.999 42.0689 134.835 42.3784 135.838 42.3784H139.716V51Z" fill="#F5EAEA"/>
<path d="M157.757 51H153.878C152.63 51 151.293 50.79 149.866 50.37C148.462 49.9499 147.147 49.2646 145.921 48.314C144.695 47.3414 143.681 46.0923 142.879 44.567C142.076 43.0195 141.675 41.1294 141.675 38.8966V0H150.368V38.8966C150.368 39.9577 150.702 40.8088 151.371 41.4499C152.039 42.0689 152.875 42.3784 153.878 42.3784H157.757V51Z" fill="#F5EAEA"/>
<path d="M199.233 38.8966C199.233 40.3778 199.044 41.7152 198.665 42.909C198.286 44.0806 197.785 45.1196 197.161 46.026C196.536 46.9103 195.812 47.673 194.987 48.314C194.163 48.933 193.293 49.4415 192.38 49.8394C191.488 50.2373 190.574 50.5358 189.638 50.7347C188.724 50.9116 187.855 51 187.03 51H171.35C170.147 51 168.832 50.79 167.405 50.37C165.979 49.9499 164.653 49.2646 163.427 48.314C162.223 47.3414 161.209 46.0923 160.384 44.567C159.582 43.0195 159.181 41.1294 159.181 38.8966V27.2243C159.181 25.0137 159.582 23.1456 160.384 21.6203C161.209 20.0728 162.223 18.8238 163.427 17.8732C164.653 16.9005 165.979 16.2042 167.405 15.7841C168.832 15.3641 170.147 15.1541 171.35 15.1541H187.03C189.259 15.1541 191.154 15.552 192.714 16.3479C194.274 17.1437 195.533 18.1495 196.492 19.3654C197.45 20.5592 198.141 21.8635 198.565 23.2783C199.01 24.6931 199.233 26.0085 199.233 27.2243V38.8966ZM190.541 27.2906C190.541 26.0969 190.24 25.2126 189.638 24.6378C189.036 24.0631 188.167 23.7757 187.03 23.7757H171.417C170.258 23.7757 169.378 24.0741 168.776 24.671C168.174 25.2458 167.873 26.0969 167.873 27.2243V38.8966C167.873 40.0241 168.174 40.8862 168.776 41.4831C169.378 42.08 170.258 42.3784 171.417 42.3784H187.03C188.212 42.3784 189.092 42.08 189.672 41.4831C190.251 40.8862 190.541 40.0241 190.541 38.8966V27.2906Z" fill="#F5EAEA"/>
<path d="M262.743 15.1541C261.361 18.2269 259.867 21.2555 258.263 24.2399C256.658 27.2022 254.975 30.0098 253.214 32.6625C251.476 35.3153 249.693 37.7692 247.865 40.0241C246.037 42.2568 244.221 44.1912 242.415 45.827C240.632 47.4408 238.883 48.712 237.166 49.6404C235.472 50.5468 233.868 51 232.352 51C231.728 51 231.148 50.8895 230.614 50.6684C230.079 50.4473 229.611 50.1489 229.209 49.7731C228.808 49.3752 228.496 48.9109 228.273 48.3804C228.05 47.8498 227.939 47.275 227.939 46.656V30.5735L210.687 49.7068C210.242 50.1489 209.751 50.4805 209.216 50.7016C208.704 50.9005 208.169 51 207.612 51C207.01 51 206.442 50.8895 205.907 50.6684C205.394 50.4473 204.937 50.1489 204.536 49.7731C204.135 49.3752 203.811 48.9109 203.566 48.3804C203.343 47.8498 203.232 47.275 203.232 46.656V15.1541H211.925V35.5806L229.243 16.381C229.867 15.762 230.602 15.3752 231.449 15.2204C232.319 15.0436 233.166 15.132 233.99 15.4857C234.815 15.8173 235.461 16.3479 235.929 17.0774C236.42 17.7848 236.665 18.5696 236.665 19.4317V39.9246C238.537 38.1339 240.231 36.2438 241.747 34.2542C243.262 32.2646 244.666 30.2198 245.959 28.1196C247.274 25.9974 248.5 23.8531 249.637 21.6866C250.796 19.498 251.921 17.3205 253.014 15.1541H262.743Z" fill="#F5EAEA"/>
<path d="M301.21 27.0254C301.21 28.2191 300.999 29.5124 300.575 30.9051C300.152 32.2757 299.461 33.5579 298.502 34.7516C297.566 35.9233 296.329 36.907 294.791 37.7029C293.276 38.4987 291.426 38.8966 289.241 38.8966H273.561V30.7061H289.241C290.423 30.7061 291.337 30.3524 291.983 29.645C292.629 28.9155 292.953 28.0202 292.953 26.959C292.953 25.8316 292.585 24.9473 291.849 24.3062C291.136 23.6651 290.267 23.3446 289.241 23.3446H273.561C272.38 23.3446 271.466 23.7094 270.82 24.4389C270.174 25.1463 269.85 26.0306 269.85 27.0917V39.1287C269.85 40.2783 270.207 41.1736 270.92 41.8147C271.656 42.4558 272.558 42.7763 273.628 42.7763H289.241V51H273.561C272.358 51 271.054 50.79 269.65 50.37C268.268 49.9499 266.975 49.2757 265.772 48.3472C264.59 47.3966 263.598 46.1697 262.796 44.6665C261.994 43.1411 261.592 41.2952 261.592 39.1287V27.0254C261.592 25.8316 261.804 24.5494 262.228 23.1788C262.651 21.7861 263.331 20.5039 264.267 19.3322C265.225 18.1385 266.462 17.1437 267.978 16.3479C269.516 15.552 271.377 15.1541 273.561 15.1541H289.241C290.445 15.1541 291.738 15.3641 293.12 15.7841C294.524 16.2042 295.817 16.8895 296.998 17.8401C298.201 18.7685 299.204 19.9954 300.007 21.5208C300.809 23.0241 301.21 24.8589 301.21 27.0254Z" fill="#F5EAEA"/>
<path d="M342.52 27.0254C342.52 28.2191 342.308 29.5124 341.885 30.9051C341.461 32.2757 340.77 33.5579 339.812 34.7516C338.876 35.9233 337.639 36.907 336.101 37.7029C334.585 38.4987 332.735 38.8966 330.551 38.8966H314.871V30.7061H330.551C331.732 30.7061 332.646 30.3524 333.293 29.645C333.939 28.9155 334.262 28.0202 334.262 26.959C334.262 25.8316 333.894 24.9473 333.159 24.3062C332.446 23.6651 331.576 23.3446 330.551 23.3446H314.871C313.69 23.3446 312.776 23.7094 312.13 24.4389C311.483 25.1463 311.16 26.0306 311.16 27.0917V39.1287C311.16 40.2783 311.517 41.1736 312.23 41.8147C312.965 42.4558 313.868 42.7763 314.938 42.7763H330.551V51H314.871C313.668 51 312.364 50.79 310.959 50.37C309.578 49.9499 308.285 49.2757 307.081 48.3472C305.9 47.3966 304.908 46.1697 304.106 44.6665C303.303 43.1411 302.902 41.2952 302.902 39.1287V27.0254C302.902 25.8316 303.114 24.5494 303.537 23.1788C303.961 21.7861 304.641 20.5039 305.577 19.3322C306.535 18.1385 307.772 17.1437 309.288 16.3479C310.826 15.552 312.687 15.1541 314.871 15.1541H330.551C331.755 15.1541 333.047 15.3641 334.429 15.7841C335.834 16.2042 337.126 16.8895 338.308 17.8401C339.511 18.7685 340.514 19.9954 341.317 21.5208C342.119 23.0241 342.52 24.8589 342.52 27.0254Z" fill="#F5EAEA"/>
<path d="M385 51H376.307V31.104C376.307 29.9766 376.107 28.9707 375.706 28.0865C375.327 27.1801 374.803 26.4064 374.134 25.7653C373.466 25.1242 372.674 24.6378 371.761 24.3062C370.869 23.9525 369.899 23.7757 368.852 23.7757H353.64V51H344.947V19.4317C344.947 18.8349 345.059 18.2822 345.282 17.7737C345.505 17.2432 345.817 16.79 346.218 16.4142C346.619 16.0163 347.087 15.7068 347.622 15.4857C348.157 15.2646 348.725 15.1541 349.327 15.1541H368.919C370.011 15.1541 371.159 15.2757 372.362 15.5189C373.588 15.762 374.792 16.1599 375.973 16.7126C377.177 17.2432 378.313 17.9285 379.383 18.7685C380.475 19.5865 381.434 20.5923 382.258 21.7861C383.105 22.9577 383.774 24.3173 384.264 25.8648C384.755 27.4122 385 29.1586 385 31.104V51Z" fill="#F5EAEA"/>
</svg>
